HIERARCHY
ROOT Hips
{
    OFFSET   0.000000   0.000000   0.000000
    CHANNELS 6 Xposition Yposition Zposition Zrotation Xrotation Yrotation
    JOINT Chest
    {
        OFFSET   0.000000   8.007240   0.000000
        CHANNELS 3 Zrotation Xrotation Yrotation
        JOINT Chest2
        {
            OFFSET   0.000000  22.077100   0.000000
            CHANNELS 3 Zrotation Xrotation Yrotation
            JOINT Neck
            {
                OFFSET   0.000000  23.254800   0.000000
                CHANNELS 3 Zrotation Xrotation Yrotation
                JOINT Head
                {
                    OFFSET   0.000000  14.370000   1.956600
                    CHANNELS 3 Zrotation Xrotation Yrotation
                    End Site
                    {
                        OFFSET   0.000000  19.566000   0.000000
                    }
                }
            }
            JOINT LeftCollar
            {
                OFFSET   3.911900  19.017000  -0.467064
                CHANNELS 3 Zrotation Xrotation Yrotation
                JOINT LeftShoulder
                {
                    OFFSET  10.383700   0.000000   0.000000
                    CHANNELS 3 Zrotation Xrotation Yrotation
                    JOINT LeftElbow
                    {
                        OFFSET  26.662100   0.001476   0.000517
                        CHANNELS 3 Zrotation Xrotation Yrotation
                        JOINT LeftWrist
                        {
                            OFFSET  28.869000  -0.000025  -0.000106
                            CHANNELS 3 Zrotation Xrotation Yrotation
                            JOINT LeftFinger0
                            {
                                OFFSET   2.044660  -2.323460   3.252850
                                CHANNELS 3 Zrotation Xrotation Yrotation
                                JOINT LeftFinger01
                                {
                                    OFFSET   3.088130   0.000000   0.000000
                                    CHANNELS 3 Zrotation Xrotation Yrotation
                                    JOINT LeftFinger02
                                    {
                                        OFFSET   2.639460   0.000000   0.000000
                                        CHANNELS 3 Zrotation Xrotation Yrotation
                                        End Site
                                        {
                                            OFFSET   2.582190   0.000000   0.000000
                                        }
                                    }
                                }
                            }
                            JOINT LeftFinger1
                            {
                                OFFSET   8.364480   0.000000   3.252850
                                CHANNELS 3 Zrotation Xrotation Yrotation
                                JOINT LeftFinger11
                                {
                                    OFFSET   4.646930   0.000000   0.000000
                                    CHANNELS 3 Zrotation Xrotation Yrotation
                                    JOINT LeftFinger12
                                    {
                                        OFFSET   2.323460   0.000000   0.000000
                                        CHANNELS 3 Zrotation Xrotation Yrotation
                                        End Site
                                        {
                                            OFFSET   2.273050   0.000000   0.000000
                                        }
                                    }
                                }
                            }
                            JOINT LeftFinger2
                            {
                                OFFSET   8.364490   0.000015   1.078090
                                CHANNELS 3 Zrotation Xrotation Yrotation
                                JOINT LeftFinger21
                                {
                                    OFFSET   5.111620   0.000000   0.000000
                                    CHANNELS 3 Zrotation Xrotation Yrotation
                                    JOINT LeftFinger22
                                    {
                                        OFFSET   2.788160   0.000016   0.000000
                                        CHANNELS 3 Zrotation Xrotation Yrotation
                                        End Site
                                        {
                                            OFFSET   2.727660   0.000000   0.000000
                                        }
                                    }
                                }
                            }
                            JOINT LeftFinger3
                            {
                                OFFSET   7.899780   0.000017  -1.078090
                                CHANNELS 3 Zrotation Xrotation Yrotation
                                JOINT LeftFinger31
                                {
                                    OFFSET   4.646930   0.000000   0.000000
                                    CHANNELS 3 Zrotation Xrotation Yrotation
                                    JOINT LeftFinger32
                                    {
                                        OFFSET   2.323470   0.000000   0.000000
                                        CHANNELS 3 Zrotation Xrotation Yrotation
                                        End Site
                                        {
                                            OFFSET   2.273050   0.000000   0.000000
                                        }
                                    }
                                }
                            }
                            JOINT LeftFinger4
                            {
                                OFFSET   7.435090   0.000000  -3.252850
                                CHANNELS 3 Zrotation Xrotation Yrotation
                                JOINT LeftFinger41
                                {
                                    OFFSET   3.717550   0.000000   0.000000
                                    CHANNELS 3 Zrotation Xrotation Yrotation
                                    JOINT LeftFinger42
                                    {
                                        OFFSET   1.858770   0.000000   0.000000
                                        CHANNELS 3 Zrotation Xrotation Yrotation
                                        End Site
                                        {
                                            OFFSET   1.818440   0.000000   0.000000
                                        }
                                    }
                                }
                            }
                        }
                    }
                }
            }
            JOINT RightCollar
            {
                OFFSET  -3.911900  19.017000  -0.467063
                CHANNELS 3 Zrotation Xrotation Yrotation
                JOINT RightShoulder
                {
                    OFFSET -10.383700   0.000019   0.000000
                    CHANNELS 3 Zrotation Xrotation Yrotation
                    JOINT RightElbow
                    {
                        OFFSET -26.662100   0.001175   0.000102
                        CHANNELS 3 Zrotation Xrotation Yrotation
                        JOINT RightWrist
                        {
                            OFFSET -28.869000   0.000016  -0.000079
                            CHANNELS 3 Zrotation Xrotation Yrotation
                            JOINT RightFinger0
                            {
                                OFFSET  -2.044660  -2.323490   3.252850
                                CHANNELS 3 Zrotation Xrotation Yrotation
                                JOINT RightFinger01
                                {
                                    OFFSET  -3.088140   0.000000   0.000000
                                    CHANNELS 3 Zrotation Xrotation Yrotation
                                    JOINT RightFinger02
                                    {
                                        OFFSET  -2.639460   0.000000   0.000000
                                        CHANNELS 3 Zrotation Xrotation Yrotation
                                        End Site
                                        {
                                            OFFSET  -2.582190   0.000000   0.000000
                                        }
                                    }
                                }
                            }
                            JOINT RightFinger1
                            {
                                OFFSET  -8.364480   0.000000   3.252850
                                CHANNELS 3 Zrotation Xrotation Yrotation
                                JOINT RightFinger11
                                {
                                    OFFSET  -4.646930   0.000000   0.000000
                                    CHANNELS 3 Zrotation Xrotation Yrotation
                                    JOINT RightFinger12
                                    {
                                        OFFSET  -2.323470   0.000000   0.000000
                                        CHANNELS 3 Zrotation Xrotation Yrotation
                                        End Site
                                        {
                                            OFFSET  -2.273050   0.000000   0.000000
                                        }
                                    }
                                }
                            }
                            JOINT RightFinger2
                            {
                                OFFSET  -8.364480   0.000000   1.078090
                                CHANNELS 3 Zrotation Xrotation Yrotation
                                JOINT RightFinger21
                                {
                                    OFFSET  -5.111620   0.000000   0.000000
                                    CHANNELS 3 Zrotation Xrotation Yrotation
                                    JOINT RightFinger22
                                    {
                                        OFFSET  -2.788160   0.000000   0.000000
                                        CHANNELS 3 Zrotation Xrotation Yrotation
                                        End Site
                                        {
                                            OFFSET  -2.727660   0.000000   0.000000
                                        }
                                    }
                                }
                            }
                            JOINT RightFinger3
                            {
                                OFFSET  -7.899780   0.000000  -1.078090
                                CHANNELS 3 Zrotation Xrotation Yrotation
                                JOINT RightFinger31
                                {
                                    OFFSET  -4.646930   0.000000   0.000000
                                    CHANNELS 3 Zrotation Xrotation Yrotation
                                    JOINT RightFinger32
                                    {
                                        OFFSET  -2.323470   0.000000   0.000000
                                        CHANNELS 3 Zrotation Xrotation Yrotation
                                        End Site
                                        {
                                            OFFSET  -2.273050   0.000000   0.000000
                                        }
                                    }
                                }
                            }
                            JOINT RightFinger4
                            {
                                OFFSET  -7.435090   0.000000  -3.252850
                                CHANNELS 3 Zrotation Xrotation Yrotation
                                JOINT RightFinger41
                                {
                                    OFFSET  -3.717550   0.000000   0.000000
                                    CHANNELS 3 Zrotation Xrotation Yrotation
                                    JOINT RightFinger42
                                    {
                                        OFFSET  -1.858770   0.000000   0.000000
                                        CHANNELS 3 Zrotation Xrotation Yrotation
                                        End Site
                                        {
                                            OFFSET  -1.818440   0.000000   0.000000
                                        }
                                    }
                                }
                            }
                        }
                    }
                }
            }
        }
    }
    JOINT LeftHip
    {
        OFFSET   9.783040   0.000000   0.000000
        CHANNELS 3 Zrotation Xrotation Yrotation
        JOINT LeftKnee
        {
            OFFSET   0.000032 -41.789100  -0.002222
            CHANNELS 3 Zrotation Xrotation Yrotation
            JOINT LeftAnkle
            {
                OFFSET   0.000087 -41.133200  -0.000135
                CHANNELS 3 Zrotation Xrotation Yrotation
                JOINT LeftToe
                {
                    OFFSET   0.000000  -6.358960  14.674500
                    CHANNELS 3 Zrotation Xrotation Yrotation
                    End Site
                    {
                        OFFSET   0.000000   0.000000   3.913200
                    }
                }
            }
        }
    }
    JOINT RightHip
    {
        OFFSET  -9.783040   0.000000   0.000000
        CHANNELS 3 Zrotation Xrotation Yrotation
        JOINT RightKnee
        {
            OFFSET   0.000047 -41.789100  -0.000896
            CHANNELS 3 Zrotation Xrotation Yrotation
            JOINT RightAnkle
            {
                OFFSET  -0.000117 -41.133300  -0.000248
                CHANNELS 3 Zrotation Xrotation Yrotation
                JOINT RightToe
                {
                    OFFSET   0.000000  -6.358970  14.674500
                    CHANNELS 3 Zrotation Xrotation Yrotation
                    End Site
                    {
                        OFFSET   0.000000   0.000000   3.913200
                    }
                }
            }
        }
    }
}
MOTION
Frames: 5
Frame Time:   0.016667
  0.274265  89.535200   1.426130  -1.826630  -0.756393   0.508044   1.308260   1.669880  -0.535181   2.633740   3.327020  -1.109090   0.028273  -0.972522   0.001264   0.044435  -1.965890   3.029920  -6.092260   2.350220   0.905765 -72.797300  13.396700  -5.664360  -2.995670  -4.980770  -9.560280   7.007990  -9.797840   9.928940  39.707900  30.100000 -57.423500 -29.176800   0.002672   0.002058  -9.590520   0.008619   0.002830 -32.071300   4.228630  -6.720930 -26.441500  -0.004418   0.003806 -18.509100  -0.003436   0.003653 -28.113800   1.739450  -3.251280 -33.158600   0.005969  -0.011856 -22.074100   0.004127   0.000360 -27.947700  -0.611570   1.152420 -31.735400   0.000506  -0.012238 -21.127100   0.001560  -0.000625 -31.749600  -0.686583   1.109370 -47.643300   0.002272  -0.001983 -31.724400   0.003913   0.005592   5.858810   0.111670   6.469650  73.768900   4.606670   0.398688   0.584901  -4.018770   8.181430 -11.375900  -9.140650  -0.963629 -34.417800  29.764400  61.501800  36.794600   0.002388  -0.002058  13.412700  -0.001943  -0.001751  36.249600   8.362640  11.219300  30.336900  -0.002031  -0.012969  21.235900  -0.012994  -0.006724  28.756600   4.991910   9.004980  43.745700  -0.008843  -0.004231  29.137600  -0.006560  -0.010415  30.126700   3.715640   6.360350  45.514600  -0.000526  -0.001837  30.303200  -0.006849  -0.008355  38.938700  -0.775289  -0.959131  58.417800  -0.000332  -0.001562  38.906300  -0.005572  -0.000000   2.567130   4.590520   2.380800   0.327609   0.732870   9.345100  -2.544580  -3.403040   3.330090  -0.000000   0.000000   0.000000   0.811958   0.287888  -4.301560   1.426990   3.597170  -7.717920  -3.330480  -2.752260  -3.068690  -0.000000   0.000000   0.000000
  0.282416  89.535200   1.418190  -1.826560  -0.764428   0.507868   1.308290   1.678200  -0.532391   2.633820   3.343730  -1.103700   0.028071  -0.963651   0.001261   0.044351  -1.955560   3.044950  -6.091920   2.350530   0.904520 -72.792800  13.410700  -5.672890  -2.999780  -4.994740  -9.560510   7.007990  -9.797800   9.928970  39.708200  30.100100 -57.423500 -29.176800   0.002677   0.002051  -9.590220   0.008625   0.002829 -32.071600   4.228660  -6.716820 -26.441500  -0.004415   0.003803 -18.509100  -0.003433   0.003651 -28.113800   1.739450  -3.251280 -33.159000   0.005973  -0.011856 -22.074200   0.004127   0.000356 -27.947800  -0.611570   1.152420 -31.730800   0.000505  -0.012241 -21.127100   0.001562  -0.000629 -31.750100  -0.686583   1.109370 -47.639900   0.002274  -0.001989 -31.724900   0.003915   0.005594   5.859250   0.107721   6.469370  73.767400   4.609050   0.400324   0.584879  -4.015650   8.190050 -11.376700  -9.140740  -0.966084 -34.419300  29.768900  61.496800  36.799400   0.002385  -0.002058  13.412900  -0.001940  -0.001747  36.243900   8.353920  11.210100  30.337000  -0.002027  -0.012965  21.236000  -0.012996  -0.006724  28.757700   4.987860   8.999790  43.736300  -0.008841  -0.004230  29.137700  -0.006554  -0.010418  30.126600   3.715620   6.360980  45.508100  -0.000523  -0.001837  30.303200  -0.006848  -0.008357  38.930400  -0.775291  -0.959133  58.405400  -0.000331  -0.001561  38.898000  -0.005571   0.000000   2.567160   4.593350   2.380810   0.327621   0.730068   9.345140  -2.540190  -3.398080   3.330080  -0.000000   0.000000  -0.000000   0.812271   0.288083  -4.301500   1.424340   3.606270  -7.724850  -3.325650  -2.752730  -3.059870   0.000000   0.000000   0.000000
  0.295613  89.535100   1.404540  -1.826450  -0.777472   0.507621   1.308420   1.692510  -0.527335   2.634100   3.372460  -1.093930   0.027868  -0.954779   0.001258   0.044532  -1.945210   3.067920  -6.091500   2.350840   0.901050 -72.785200  13.425800  -5.685310  -3.005970  -5.008720  -9.560750   7.008000  -9.797720   9.929050  39.708600  30.100300 -57.423700 -29.176800   0.002689   0.002036  -9.589920   0.008631   0.002828 -32.072100   4.228730  -6.709230 -26.441600  -0.004408   0.003795 -18.509100  -0.003426   0.003646 -28.113800   1.739450  -3.251280 -33.159400   0.005982  -0.011856 -22.074400   0.004128   0.000346 -27.947900  -0.611570   1.152420 -31.722300   0.000502  -0.012248 -21.127100   0.001566  -0.000641 -31.750600  -0.686583   1.109370 -47.633800   0.002279  -0.002004 -31.725400   0.003922   0.005599   5.860080   0.099860   6.469100  73.763400   4.620330   0.404321   0.584784  -4.012520   8.198660 -11.378100  -9.141450  -0.973238 -34.424900  29.775400  61.493800  36.808600   0.002379  -0.002058  13.413100  -0.001938  -0.001744  36.239600   8.341730  11.196200  30.337200  -0.002022  -0.012961  21.236100  -0.013000  -0.006724  28.759300   4.982240   8.991960  43.726900  -0.008832  -0.004225  29.137800  -0.006540  -0.010424  30.126600   3.715590   6.362270  45.500200  -0.000517  -0.001834  30.303200  -0.006846  -0.008362  38.922100  -0.775296  -0.959136  58.393100  -0.000326  -0.001556  38.889800  -0.005567  -0.000000   2.567230   4.597560   2.380800   0.327691   0.725920   9.345200  -2.533270  -3.388900   3.330160  -0.000000   0.000000   0.000000   0.812673   0.289452  -4.301400   1.418990   3.615330  -7.737590  -3.317230  -2.753220  -3.044830  -0.000000   0.000000   0.000000
  0.305369  89.535100   1.392720  -1.827570  -0.787347   0.507515   1.308700   1.704920  -0.522415   2.634660   3.397390  -1.084390   0.028483  -0.956018   0.001280   0.046399  -1.946160   3.082010  -6.093000   2.349300   0.894975 -72.778200  13.426400  -5.691460  -3.012190  -5.007590  -9.560720   7.004120  -9.797640   9.929160  39.709000  30.100600 -57.423800 -29.183000   0.002706   0.002021  -9.592200   0.008621   0.002829 -32.073500   4.223650  -6.699340 -26.441600  -0.004395   0.003785 -18.509200  -0.003413   0.003635 -28.114100   1.735820  -3.244530 -33.156900   0.005996  -0.011856 -22.074500   0.004132   0.000331 -27.947700  -0.615543   1.159580 -31.713700   0.000498  -0.012259 -21.122700   0.001572  -0.000660 -31.747200  -0.690787   1.116280 -47.628300   0.002287  -0.002029 -31.722100   0.003933   0.005607   5.860910   0.091053   6.470660  73.757100   4.645310   0.412128   0.584531  -4.016180   8.189140 -11.379700  -9.147960  -0.987105 -34.420100  29.778500  61.506500  36.821500   0.002374  -0.002053  13.412600  -0.001946  -0.001757  36.245500   8.336610  11.186900  30.337200  -0.002019  -0.012962  21.236200  -0.013002  -0.006723  28.762800   4.980020   8.986610  43.731400  -0.008812  -0.004210  29.137900  -0.006525  -0.010431  30.126800   3.715550   6.363900  45.499300  -0.000508  -0.001828  30.303500  -0.006843  -0.008372  38.926900  -0.775303  -0.959141  58.400300  -0.000317  -0.001547  38.894600  -0.005562   0.000000   2.567330   4.600290   2.380240   0.327912   0.723341   9.345260  -2.527530  -3.376940   3.331040   0.000000   0.000000   0.000000   0.813096   0.295297  -4.301290   1.412980   3.615090  -7.750510  -3.309490  -2.753080  -3.032020   0.000000   0.000000   0.000000
  0.314631  89.535100   1.380480  -1.829720  -0.796458   0.507481   1.309040   1.717770  -0.517055   2.635310   3.423190  -1.073970   0.030209  -0.958263   0.001303   0.049969  -1.948200   3.093470  -6.096340   2.344990   0.887966 -72.770300  13.427100  -5.695970  -3.016630  -5.006460  -9.560660   6.995600  -9.797560   9.929280  39.709100  30.100800 -57.423900 -29.192300   0.002730   0.002002  -9.596120   0.008605   0.002831 -32.074600   4.218530  -6.692940 -26.441700  -0.004379   0.003771 -18.509200  -0.003395   0.003621 -28.114700   1.730170  -3.234040 -33.151900   0.006014  -0.011857 -22.074500   0.004137   0.000310 -27.947300  -0.620969   1.170280 -31.703600   0.000492  -0.012272 -21.114600   0.001579  -0.000685 -31.740500  -0.697033   1.126640 -47.621000   0.002298  -0.002062 -31.715600   0.003946   0.005619   5.861950   0.080376   6.474470  73.749300   4.677930   0.417583   0.584639  -4.025170   8.173020 -11.376700  -9.153850  -1.001230 -34.408500  29.780400  61.525100  36.830000   0.002366  -0.002043  13.411600  -0.001957  -0.001769  36.252200   8.334950  11.182300  30.337300  -0.002017  -0.012962  21.236200  -0.013004  -0.006722  28.767400   4.979370   8.983890  43.738200  -0.008786  -0.004188  29.137900  -0.006506  -0.010441  30.126900   3.715500   6.365720  45.498400  -0.000495  -0.001819  30.303700  -0.006838  -0.008385  38.934500  -0.775311  -0.959148  58.411700  -0.000307  -0.001535  38.902200  -0.005555   0.000000   2.567510   4.601630   2.379170   0.328075   0.722106   9.345290  -2.524280  -3.369210   3.332410   0.000000   0.000000  -0.000000   0.813337   0.299969  -4.301230   1.407760   3.614850  -7.764660  -3.301690  -2.751900  -3.018940  -0.000000   0.000000  -0.000000
